<mxfile host="65bd71144e">
    <diagram id="rLTFirSggqk5s6QhS6uG" name="Page-1">
        <mxGraphModel dx="2120" dy="1270" grid="1" gridSize="10" guides="1" tooltips="1" connect="1" arrows="1" fold="1" page="1" pageScale="1" pageWidth="827" pageHeight="1169" math="0" shadow="0">
            <root>
                <mxCell id="0"/>
                <mxCell id="1" parent="0"/>
                <mxCell id="138" value="" style="html=1;verticalAlign=bottom;startArrow=circle;startFill=1;endArrow=open;startSize=6;endSize=8;fontFamily=Alegreya;fontSource=https%3A%2F%2Ffonts.googleapis.com%2Fcss%3Ffamily%3DAlegreya;metaEdit=0;comic=0;" parent="1" edge="1" target="151">
                    <mxGeometry width="80" relative="1" as="geometry">
                        <mxPoint x="-792" y="153.5" as="sourcePoint"/>
                        <mxPoint x="-712" y="153.5" as="targetPoint"/>
                    </mxGeometry>
                </mxCell>
                <mxCell id="147" value="Registrieren" style="html=1;verticalAlign=bottom;labelBackgroundColor=none;endArrow=open;endFill=0;sketch=0;fontFamily=Alegreya;fontSource=https%3A%2F%2Ffonts.googleapis.com%2Fcss%3Ffamily%3DAlegreya;curved=1;exitX=0.25;exitY=0;exitDx=0;exitDy=0;entryX=0.5;entryY=0;entryDx=0;entryDy=0;" parent="1" edge="1" target="151" source="151">
                    <mxGeometry x="0.3857" y="-4" width="160" relative="1" as="geometry">
                        <mxPoint x="-722" y="50" as="sourcePoint"/>
                        <mxPoint x="-562" y="50" as="targetPoint"/>
                        <Array as="points">
                            <mxPoint x="-642" y="10"/>
                        </Array>
                        <mxPoint as="offset"/>
                    </mxGeometry>
                </mxCell>
                <mxCell id="148" value="Endgültig&lt;br&gt;bestätigen" style="html=1;verticalAlign=bottom;labelBackgroundColor=none;endArrow=open;endFill=0;sketch=0;fontFamily=Alegreya;fontSource=https%3A%2F%2Ffonts.googleapis.com%2Fcss%3Ffamily%3DAlegreya;curved=1;" parent="1" edge="1" target="155" source="154">
                    <mxGeometry width="160" relative="1" as="geometry">
                        <mxPoint x="-712" y="70" as="sourcePoint"/>
                        <mxPoint x="-552" y="70" as="targetPoint"/>
                    </mxGeometry>
                </mxCell>
                <mxCell id="151" value="&lt;font data-font-src=&quot;https://fonts.googleapis.com/css?family=Alegreya&quot; face=&quot;Alegreya&quot;&gt;Startseite&lt;/font&gt;" style="html=1;align=center;verticalAlign=top;rounded=1;absoluteArcSize=1;arcSize=28;dashed=0;" vertex="1" parent="1">
                    <mxGeometry x="-700" y="140" width="138" height="28" as="geometry"/>
                </mxCell>
                <mxCell id="152" value="&lt;font data-font-src=&quot;https://fonts.googleapis.com/css?family=Alegreya&quot; face=&quot;Alegreya&quot;&gt;Warenauswahl&lt;/font&gt;" style="html=1;align=center;verticalAlign=top;rounded=1;absoluteArcSize=1;arcSize=28;dashed=0;" vertex="1" parent="1">
                    <mxGeometry x="-462" y="140" width="180" height="28" as="geometry"/>
                </mxCell>
                <mxCell id="153" value="&lt;font data-font-src=&quot;https://fonts.googleapis.com/css?family=Alegreya&quot; face=&quot;Alegreya&quot;&gt;Zahlungsart wählen&lt;/font&gt;" style="html=1;align=center;verticalAlign=top;rounded=1;absoluteArcSize=1;arcSize=28;dashed=0;" vertex="1" parent="1">
                    <mxGeometry x="-172" y="140" width="138" height="28" as="geometry"/>
                </mxCell>
                <mxCell id="154" value="&lt;font data-font-src=&quot;https://fonts.googleapis.com/css?family=Alegreya&quot; face=&quot;Alegreya&quot;&gt;Überprüfung der Daten&lt;/font&gt;" style="html=1;align=center;verticalAlign=top;rounded=1;absoluteArcSize=1;arcSize=28;dashed=0;" vertex="1" parent="1">
                    <mxGeometry x="-172" y="280" width="138" height="28" as="geometry"/>
                </mxCell>
                <mxCell id="155" value="&lt;font data-font-src=&quot;https://fonts.googleapis.com/css?family=Alegreya&quot; face=&quot;Alegreya&quot;&gt;Fertig&lt;/font&gt;" style="html=1;align=center;verticalAlign=top;rounded=1;absoluteArcSize=1;arcSize=28;dashed=0;" vertex="1" parent="1">
                    <mxGeometry x="-532" y="280" width="138" height="28" as="geometry"/>
                </mxCell>
                <mxCell id="156" value="Anmelden" style="html=1;verticalAlign=bottom;labelBackgroundColor=none;endArrow=open;endFill=0;sketch=0;fontFamily=Alegreya;fontSource=https%3A%2F%2Ffonts.googleapis.com%2Fcss%3Ffamily%3DAlegreya;curved=1;" edge="1" parent="1" source="151" target="152">
                    <mxGeometry width="160" relative="1" as="geometry">
                        <mxPoint x="-612" y="110" as="sourcePoint"/>
                        <mxPoint x="-452" y="110" as="targetPoint"/>
                    </mxGeometry>
                </mxCell>
                <mxCell id="157" value="Bestellung abschließen" style="html=1;verticalAlign=bottom;labelBackgroundColor=none;endArrow=open;endFill=0;sketch=0;fontFamily=Alegreya;fontSource=https%3A%2F%2Ffonts.googleapis.com%2Fcss%3Ffamily%3DAlegreya;curved=1;" edge="1" parent="1" source="152" target="153">
                    <mxGeometry width="160" relative="1" as="geometry">
                        <mxPoint x="-333.5" y="210" as="sourcePoint"/>
                        <mxPoint x="-172.5" y="210" as="targetPoint"/>
                    </mxGeometry>
                </mxCell>
                <mxCell id="158" value="Zahlungsart&lt;br&gt;festlegen" style="html=1;verticalAlign=bottom;labelBackgroundColor=none;endArrow=open;endFill=0;sketch=0;fontFamily=Alegreya;fontSource=https%3A%2F%2Ffonts.googleapis.com%2Fcss%3Ffamily%3DAlegreya;curved=1;" edge="1" parent="1" source="153" target="154">
                    <mxGeometry x="0.0555" y="36" width="160" relative="1" as="geometry">
                        <mxPoint x="-282" y="240" as="sourcePoint"/>
                        <mxPoint x="-160" y="240" as="targetPoint"/>
                        <mxPoint as="offset"/>
                    </mxGeometry>
                </mxCell>
                <mxCell id="161" value="Anzahl&lt;br&gt;ändern" style="html=1;verticalAlign=bottom;labelBackgroundColor=none;endArrow=open;endFill=0;sketch=0;fontFamily=Alegreya;fontSource=https%3A%2F%2Ffonts.googleapis.com%2Fcss%3Ffamily%3DAlegreya;curved=1;exitX=0.633;exitY=-0.036;exitDx=0;exitDy=0;exitPerimeter=0;" edge="1" parent="1" source="152">
                    <mxGeometry x="0.458" y="-5" width="160" relative="1" as="geometry">
                        <mxPoint x="-372" y="-16" as="sourcePoint"/>
                        <mxPoint x="-322" y="140" as="targetPoint"/>
                        <Array as="points">
                            <mxPoint x="-332" y="10"/>
                        </Array>
                        <mxPoint as="offset"/>
                    </mxGeometry>
                </mxCell>
                <mxCell id="162" value="Artikel&lt;br&gt;löschen" style="html=1;verticalAlign=bottom;labelBackgroundColor=none;endArrow=open;endFill=0;sketch=0;fontFamily=Alegreya;fontSource=https%3A%2F%2Ffonts.googleapis.com%2Fcss%3Ffamily%3DAlegreya;curved=1;exitX=0.25;exitY=0;exitDx=0;exitDy=0;entryX=0.4;entryY=0;entryDx=0;entryDy=0;entryPerimeter=0;" edge="1" parent="1">
                    <mxGeometry x="0.4134" y="-5" width="160" relative="1" as="geometry">
                        <mxPoint x="-402" y="140" as="sourcePoint"/>
                        <mxPoint x="-375" y="140" as="targetPoint"/>
                        <Array as="points">
                            <mxPoint x="-387" y="20"/>
                        </Array>
                        <mxPoint as="offset"/>
                    </mxGeometry>
                </mxCell>
                <mxCell id="165" value="Neuer&lt;br&gt;Artikel" style="html=1;verticalAlign=bottom;labelBackgroundColor=none;endArrow=open;endFill=0;sketch=0;fontFamily=Alegreya;fontSource=https%3A%2F%2Ffonts.googleapis.com%2Fcss%3Ffamily%3DAlegreya;curved=1;exitX=0.072;exitY=0;exitDx=0;exitDy=0;exitPerimeter=0;entryX=0.172;entryY=0.036;entryDx=0;entryDy=0;entryPerimeter=0;" edge="1" parent="1" source="152" target="152">
                    <mxGeometry x="-0.4184" y="-3" width="160" relative="1" as="geometry">
                        <mxPoint x="-352" y="4" as="sourcePoint"/>
                        <mxPoint x="-192" y="4" as="targetPoint"/>
                        <Array as="points">
                            <mxPoint x="-442" y="20"/>
                        </Array>
                        <mxPoint as="offset"/>
                    </mxGeometry>
                </mxCell>
            </root>
        </mxGraphModel>
    </diagram>
</mxfile>
